# xmcd
#
# Track frame offsets: 
#        150
#        14608
#        25604
#        35697
#        44788
#        77890
#        87111
#        99145
#        109286
#        122271
#        130916
#        158839
#        171227
#        181595
#        197695
#        206272
#        216924
#        225983
#        236125
#        253163
#
# Disc length: 3502 seconds
#
# Revision: 1
# Processed by: cddbd v1.5.2PL0 Copyright (c) Steve Scherf et al.
# Submitted via: ExactAudioCopyFreeDBPlugin 1.0
#
DISCID=050dac14
DTITLE=Loretta Lynn - You Ain't Women Enough
DYEAR=2002
DGENRE=Country
TTITLE0=Coal miner's Daughter
TTITLE1=Hey Loretta
TTITLE2=If You're Looking At Me
TTITLE3=Your Squaw Is On The Warpath
TTITLE4=Medley
TTITLE5=Y'all Come
TTITLE6=Me And Bobby McGee
TTITLE7=Out Of My Head And Back In My Bed
TTITLE8=Let Your Love Flow
TTITLE9=They Don't Make'em Like My Daddy
TTITLE10=Medley
TTITLE11=When The Tingle Becomes A Chill
TTITLE12=Red, White And Blue
TTITLE13=Medley
TTITLE14=We've Come A Long Way Baby
TTITLE15=Spring Fever
TTITLE16=Fist City
TTITLE17=Somebody, Somewhere
TTITLE18=Medley
TTITLE19=You Ain't Woman Enough
EXTD=
EXTT0=
EXTT1=
EXTT2=
EXTT3=
EXTT4=
EXTT5=
EXTT6=
EXTT7=
EXTT8=
EXTT9=
EXTT10=
EXTT11=
EXTT12=
EXTT13=
EXTT14=
EXTT15=
EXTT16=
EXTT17=
EXTT18=
EXTT19=
PLAYORDER=
